<svg version="1.0" xmlns="http://www.w3.org/2000/svg"
 width="2274.000000pt" height="652.000000pt" viewBox="0 0 2274.000000 652.000000"
 preserveAspectRatio="xMidYMid meet">
<g transform="translate(0.000000,652.000000) scale(0.100000,-0.100000)"
fill="#565656" stroke="none">
<path d="M4131 5909 c-115 -22 -244 -82 -320 -148 l-45 -38 32 -184 c18 -101
32 -188 32 -193 0 -4 35 -44 77 -88 l77 -79 4 -159 c3 -124 2 -160 -8 -160 -7
0 -51 22 -99 49 -47 27 -165 89 -261 138 -197 101 -275 148 -275 166 0 36
-747 521 -921 599 -109 48 -276 -38 -345 -178 -26 -53 -31 -71 -26 -108 l6
-44 -117 -40 c-319 -110 -585 -265 -772 -452 -101 -100 -124 -127 -172 -200
-214 -329 -346 -720 -366 -1089 -31 -553 142 -1043 502 -1426 36 -38 66 -73
66 -78 0 -5 -22 -46 -50 -92 -102 -168 -135 -268 -274 -824 -58 -232 -106
-423 -106 -425 0 -9 193 -123 315 -187 355 -184 648 -256 1090 -266 179 -4
260 -1 365 11 403 50 698 155 1049 373 91 57 374 263 480 350 19 15 100 82
180 148 119 99 415 336 456 366 21 16 215 40 360 46 83 3 242 0 355 -6 113 -7
287 -15 388 -18 146 -5 182 -9 182 -20 0 -37 53 -113 124 -175 42 -37 77 -70
77 -74 0 -4 -24 -17 -54 -29 -66 -26 -110 -57 -136 -94 l-20 -28 45 -33 c65
-47 130 -138 145 -205 12 -54 13 -55 49 -55 38 0 60 14 60 38 0 8 -14 52 -32
98 -30 79 -31 86 -18 125 27 81 61 114 152 149 46 18 85 34 87 36 2 1 -15 32
-37 67 -60 95 -77 155 -76 267 1 184 79 297 263 383 60 29 75 31 171 32 88 0
112 -3 149 -22 l43 -22 -6 37 c-3 20 -13 75 -21 122 -19 101 -13 165 21 236
30 63 82 108 189 161 133 67 233 94 365 100 63 3 145 1 183 -4 l67 -10 0 106
c0 58 7 151 15 205 8 55 15 109 15 122 0 19 -29 36 -192 117 -258 128 -467
195 -663 212 -38 3 -128 13 -200 22 -135 16 -254 13 -337 -7 -42 -11 -49 -10
-109 20 -119 60 -652 354 -879 485 -74 43 -160 93 -190 110 -90 52 -277 166
-406 248 l-121 77 -16 98 c-28 166 -30 257 -11 413 l17 144 64 61 63 61 0 120
c0 125 9 191 37 282 l17 54 -42 37 c-142 127 -497 211 -711 169z m349 -123
c96 -18 179 -56 214 -97 31 -36 31 -38 -5 -206 -10 -51 -19 -104 -19 -118 0
-31 -1 -31 -48 -1 -101 64 -274 99 -390 79 -96 -16 -134 -28 -209 -68 l-61
-34 -16 72 c-45 205 -54 253 -46 268 11 20 113 74 170 89 114 31 289 38 410
16z m-2060 -67 c57 -25 106 -73 120 -115 14 -43 -1 -102 -34 -134 -52 -48
-176 -56 -254 -16 -40 21 -89 78 -97 115 -26 120 132 210 265 150z m290 -184
c39 -25 72 -45 74 -45 6 0 301 -172 373 -217 74 -47 91 -78 25 -44 -63 32
-195 69 -228 64 -22 -3 -41 3 -69 21 -45 31 -174 73 -251 82 -30 4 -57 11 -60
15 -3 5 0 9 6 9 20 0 52 89 45 126 -3 21 -2 34 4 34 6 0 42 -20 81 -45z m1735
-175 c82 -21 175 -72 175 -96 0 -19 -9 -18 -71 10 -95 43 -235 53 -431 30 -43
-5 -48 -4 -48 14 0 25 4 28 71 46 79 22 211 20 304 -4z m-1929 -44 c207 -44
426 -153 604 -301 317 -264 531 -698 580 -1174 20 -207 10 -471 -26 -654 -51
-258 -210 -538 -435 -768 -168 -171 -285 -258 -484 -359 -378 -192 -739 -197
-1120 -15 -182 86 -300 180 -443 350 -273 324 -404 673 -419 1115 -9 254 23
474 104 720 142 434 406 763 758 943 168 86 295 125 530 161 56 8 280 -3 351
-18z m1992 -95 c46 -18 86 -40 89 -49 4 -8 -2 -111 -12 -227 -10 -123 -16
-257 -13 -318 3 -59 1 -107 -4 -107 -14 0 -402 207 -466 248 -11 7 -11 22 -1
78 10 59 9 89 -6 203 l-19 134 28 22 c52 41 112 55 221 52 85 -3 113 -8 183
-36z m-1151 -147 c103 -59 220 -126 258 -149 39 -23 140 -79 225 -125 85 -46
189 -105 230 -130 41 -26 183 -107 315 -180 132 -73 278 -157 325 -185 155
-93 1122 -643 1495 -850 512 -284 636 -370 700 -486 24 -46 29 -68 34 -155 3
-56 9 -106 13 -110 13 -12 44 24 56 65 24 79 5 187 -47 258 -37 52 -134 134
-253 217 -94 64 -118 88 -80 80 197 -40 261 -62 370 -127 129 -76 269 -215
346 -342 19 -32 34 -60 32 -62 -1 -1 -40 -10 -87 -18 -307 -58 -507 -174 -592
-344 -26 -54 -32 -78 -35 -155 l-4 -92 -97 -23 c-52 -12 -115 -31 -138 -42
-23 -10 -44 -19 -47 -19 -2 0 -43 -23 -91 -50 l-87 -50 -156 14 c-233 22 -398
35 -577 46 -88 6 -230 15 -315 20 -85 6 -409 24 -720 40 -661 35 -836 46 -945
60 -44 5 -118 14 -164 20 -46 5 -86 12 -88 14 -2 2 41 49 96 105 128 131 246
300 331 476 82 168 130 321 160 509 20 122 22 164 17 335 -9 348 -79 629 -231
930 -116 231 -215 372 -369 524 -49 48 -85 87 -79 87 6 0 95 -48 199 -106z
m73 -2953 c152 -15 200 -22 200 -30 0 -9 -159 -102 -255 -149 -224 -109 -535
-203 -789 -238 -170 -24 -476 -24 -616 0 -176 30 -330 83 -431 149 -89 57
-102 74 -96 120 3 22 13 47 21 56 14 14 19 14 39 2 121 -77 273 -135 448 -172
152 -33 435 -33 599 0 127 25 268 74 369 128 65 35 189 121 209 146 11 13 59
11 302 -12z m327 -302 c46 -63 135 -192 200 -286 l117 -173 -25 -26 c-48 -51
-330 -296 -335 -291 -6 6 -37 126 -78 307 -99 429 -115 505 -106 514 17 17
124 74 135 71 6 -1 47 -53 92 -116z m-2293 -66 c88 -44 88 -13 9 -288 -29
-104 -83 -296 -119 -425 -36 -129 -68 -238 -72 -242 -9 -9 -272 143 -272 158
0 18 71 184 183 429 167 366 186 405 191 405 3 0 39 -17 80 -37z m1804 -167
c42 -180 54 -287 50 -440 -2 -122 -6 -148 -20 -163 -14 -13 -24 -15 -44 -7
l-27 9 1 150 c1 118 -4 190 -26 337 -19 126 -25 191 -18 198 5 5 22 10 36 10
25 0 28 -5 48 -94z m-246 -111 c48 -279 24 -620 -46 -639 -37 -10 -76 -6 -76
7 0 6 7 48 14 92 29 167 29 412 0 596 -6 35 -5 38 22 42 68 10 68 10 86 -98z
m-1248 72 c31 -10 42 -19 48 -42 11 -39 1 -226 -18 -335 -27 -154 -113 -382
-149 -396 -16 -6 -174 31 -187 44 -5 5 0 29 10 53 68 158 137 424 158 604 3
33 11 66 16 73 13 15 70 14 122 -1z m970 -54 c3 -16 9 -118 12 -229 7 -216 -2
-319 -38 -431 l-20 -63 -54 0 c-58 0 -62 5 -39 50 30 58 46 184 55 432 4 136
11 252 15 257 3 6 19 11 34 11 23 0 30 -5 35 -27z m-640 -3 l29 -11 -6 -152
c-8 -208 -37 -354 -101 -506 -36 -84 -47 -101 -69 -101 -35 0 -149 33 -153 44
-3 7 7 43 21 80 53 140 118 420 130 561 4 44 12 86 18 94 13 15 81 11 131 -9z
m374 -120 c4 -170 -27 -428 -73 -603 -8 -32 -15 -60 -15 -62 0 -2 -22 -8 -49
-14 -35 -7 -68 -7 -108 0 -56 10 -123 28 -123 33 0 1 11 29 24 62 37 90 63
202 86 369 32 237 41 298 47 323 5 22 8 23 107 20 l101 -3 3 -125z"/>
<path d="M2928 4993 c-32 -38 -29 -51 22 -88 116 -85 290 -298 388 -475 101
-182 179 -443 205 -680 l12 -115 5 90 c27 492 -194 1006 -539 1253 -50 36 -71
40 -93 15z"/>
<path d="M1835 4881 c-196 -54 -373 -184 -518 -380 -91 -122 -179 -333 -211
-501 l-14 -72 131 7 c73 4 204 13 291 19 l160 11 32 110 c69 238 125 426 135
452 10 26 11 24 45 -57 35 -83 133 -336 169 -434 l18 -48 56 6 c110 11 542 28
549 22 12 -12 -242 -244 -414 -379 l-61 -48 17 -62 c10 -34 36 -125 58 -202
51 -175 104 -396 98 -403 -3 -2 -89 77 -192 176 -103 100 -210 200 -239 222
l-53 41 -48 -30 c-170 -105 -389 -220 -398 -210 -3 3 1 30 9 60 8 30 35 131
60 224 25 94 48 177 51 186 6 21 -140 116 -333 216 -120 63 -144 72 -149 58
-4 -9 -4 -91 -1 -183 6 -198 28 -291 107 -458 94 -201 226 -367 361 -456 70
-47 191 -88 278 -95 165 -14 378 65 575 214 107 81 174 155 243 269 165 272
218 623 147 974 -73 354 -323 653 -624 744 -88 27 -251 30 -335 7z"/>
<path d="M2644 4674 c219 -220 337 -602 304 -987 -28 -333 -139 -569 -382
-813 -117 -117 -287 -244 -375 -281 -51 -22 -31 -25 45 -8 412 93 718 368 829
743 105 359 65 784 -101 1075 -77 134 -166 220 -297 288 l-82 42 59 -59z"/>
<path d="M891 3312 c-18 -34 -23 -137 -11 -217 58 -382 438 -810 849 -957 67
-24 248 -37 277 -20 18 11 18 11 -1 12 -39 1 -176 49 -268 95 -313 155 -576
481 -702 871 -19 59 -37 128 -41 154 -5 41 -10 49 -40 64 -44 20 -51 20 -63
-2z"/>
<path d="M3904 4439 c-18 -20 -18 -22 0 -67 27 -70 55 -173 55 -207 1 -27 6
-33 39 -44 48 -17 439 -187 707 -308 205 -93 233 -105 345 -156 188 -84 548
-245 620 -277 47 -21 110 -49 140 -63 30 -14 136 -61 235 -105 99 -44 241
-107 315 -140 179 -79 455 -192 470 -192 12 0 5 81 -10 109 -7 14 -166 101
-394 217 -71 36 -161 83 -200 104 -39 20 -404 204 -811 409 -407 204 -814 409
-905 457 -244 126 -418 217 -483 253 -67 36 -97 39 -123 10z"/>
<path d="M3645 2398 c-27 -24 -65 -56 -83 -73 l-33 -31 223 -17 c123 -10 293
-25 378 -32 85 -8 232 -21 325 -30 94 -8 271 -24 395 -35 372 -34 549 -50 680
-60 69 -5 251 -21 405 -35 334 -30 331 -30 339 -9 4 9 5 18 4 20 -4 3 -450 63
-738 99 -235 30 -379 49 -570 75 -74 11 -189 26 -255 35 -66 9 -220 29 -342
45 -243 33 -677 90 -678 90 0 0 -22 -19 -50 -42z"/>
<path d="M9644 5856 c-24 -11 -63 -65 -182 -255 -84 -133 -152 -244 -152 -246
0 -3 33 -5 74 -5 l74 0 34 58 34 57 104 0 105 0 9 -57 9 -58 69 0 c38 0 68 4
68 10 0 5 -21 112 -46 237 -32 158 -51 234 -64 247 -23 24 -96 31 -136 12z"/>
<path d="M10315 5863 c-36 -9 -56 -35 -182 -225 -111 -171 -125 -188 -151
-188 -43 0 -69 -36 -87 -118 -8 -41 -15 -75 -15 -78 0 -3 30 -4 67 -2 l66 3
11 45 11 45 214 3 214 2 -6 -50 -6 -50 67 0 68 0 12 58 c22 108 15 136 -37
144 -23 3 -27 14 -68 193 -24 105 -50 196 -57 204 -15 14 -88 23 -121 14z m64
-273 c16 -74 28 -136 27 -138 -2 -1 -58 -1 -125 0 l-122 3 92 144 c51 79 94
140 96 135 2 -5 16 -70 32 -144z"/>
<path d="M10852 5860 c-101 -19 -141 -54 -179 -157 -17 -45 -27 -97 -30 -153
-6 -109 10 -144 81 -179 44 -22 63 -25 160 -25 205 1 269 47 311 226 33 141 9
234 -70 269 -54 24 -191 33 -273 19z m185 -115 c31 -22 36 -63 18 -140 -28
-121 -65 -155 -169 -155 -47 0 -61 4 -81 25 -28 27 -30 50 -14 127 15 72 44
124 77 142 36 20 141 21 169 1z"/>
<path d="M11992 5860 c-101 -19 -141 -54 -179 -157 -17 -45 -27 -97 -30 -153
-6 -109 10 -144 81 -179 44 -22 63 -25 160 -25 205 1 269 47 311 226 33 141 9
234 -70 269 -54 24 -191 33 -273 19z m185 -115 c31 -22 36 -63 18 -140 -28
-121 -65 -155 -169 -155 -47 0 -61 4 -81 25 -28 27 -30 50 -14 127 15 72 44
124 77 142 36 20 141 21 169 1z"/>
<path d="M14832 5860 c-101 -19 -141 -54 -179 -157 -17 -45 -27 -97 -30 -153
-6 -109 10 -144 81 -179 44 -22 63 -25 160 -25 205 1 269 47 311 226 33 141 9
234 -70 269 -54 24 -191 33 -273 19z m185 -115 c31 -22 36 -63 18 -140 -28
-121 -65 -155 -169 -155 -47 0 -61 4 -81 25 -28 27 -30 50 -14 127 15 72 44
124 77 142 36 20 141 21 169 1z"/>
<path d="M15350 5863 c-39 -12 -60 -28 -69 -52 -9 -21 -101 -439 -101 -456 0
-3 31 -5 69 -5 63 0 69 2 74 23 3 12 20 94 37 182 18 88 33 161 34 163 2 1 13
-72 26 -164 27 -190 35 -209 97 -209 22 0 50 8 64 16 13 9 66 91 118 183 51
92 95 165 97 164 2 -3 -42 -212 -71 -335 -5 -22 -3 -23 65 -23 64 0 70 2 75
23 46 197 92 444 84 458 -24 45 -136 47 -189 3 -15 -13 -70 -99 -122 -190 -69
-123 -95 -160 -100 -147 -3 10 -16 86 -28 168 -12 83 -26 157 -31 166 -15 29
-87 46 -129 32z"/>
<path d="M16100 5863 c-39 -12 -60 -28 -69 -52 -9 -21 -101 -439 -101 -456 0
-3 31 -5 69 -5 63 0 69 2 74 23 3 12 20 94 37 182 18 88 33 161 34 163 2 1 13
-72 26 -164 27 -190 35 -209 97 -209 22 0 50 8 64 16 13 9 66 91 118 183 51
92 95 165 97 164 2 -3 -42 -212 -71 -335 -5 -22 -3 -23 65 -23 64 0 70 2 75
23 46 197 92 444 84 458 -24 45 -136 47 -189 3 -15 -13 -70 -99 -122 -190 -69
-123 -95 -160 -100 -147 -3 10 -16 86 -28 168 -12 83 -26 157 -31 166 -15 29
-87 46 -129 32z"/>
<path d="M20012 5860 c-101 -19 -141 -54 -179 -157 -17 -45 -27 -97 -30 -153
-6 -109 10 -144 81 -179 44 -22 63 -25 160 -25 205 1 269 47 311 226 33 141 9
234 -70 269 -54 24 -191 33 -273 19z m185 -115 c31 -22 36 -63 18 -140 -28
-121 -65 -155 -169 -155 -47 0 -61 4 -81 25 -28 27 -30 50 -14 127 15 72 44
124 77 142 36 20 141 21 169 1z"/>
<path d="M9085 5851 c-105 -26 -172 -135 -183 -298 -4 -59 -1 -79 17 -115 34
-72 62 -82 233 -86 162 -4 148 -10 163 66 l7 32 -94 0 c-173 0 -200 21 -178
140 14 77 43 133 79 151 14 7 76 15 138 17 122 4 114 0 128 70 l7 32 -144 -1
c-79 -1 -156 -4 -173 -8z"/>
<path d="M11329 5850 c-9 -5 -21 -22 -27 -37 -11 -26 -92 -394 -92 -414 0 -5
9 -18 20 -29 18 -18 33 -20 198 -20 209 0 233 7 270 80 29 58 30 130 2 155
-26 24 -25 27 9 47 69 39 66 184 -4 216 -31 15 -352 16 -376 2z m284 -111 c7
-11 5 -25 -4 -45 -14 -29 -15 -29 -108 -32 l-94 -3 7 42 c4 23 9 46 12 51 3 5
44 7 91 6 65 -2 88 -7 96 -19z m-44 -188 c19 -12 6 -78 -19 -91 -10 -5 -55
-10 -99 -10 -90 0 -90 1 -75 79 l7 31 86 0 c47 0 92 -4 100 -9z"/>
<path d="M12469 5850 c-9 -5 -21 -22 -27 -37 -11 -26 -92 -394 -92 -414 0 -5
9 -18 20 -29 19 -19 33 -20 214 -20 l194 0 7 33 c4 17 9 40 11 50 5 16 -6 17
-140 17 l-146 0 0 24 c0 13 3 38 6 55 l7 31 143 0 c78 0 145 4 148 8 3 5 8 28
12 50 l7 42 -143 0 -143 0 7 42 c4 22 9 45 12 50 3 4 70 8 149 8 79 0 146 3
148 8 3 4 8 26 12 50 l7 42 -199 0 c-109 0 -205 -5 -214 -10z"/>
<path d="M13115 5848 c-4 -13 -105 -485 -105 -494 0 -2 31 -4 69 -4 l69 0 11
53 c6 28 16 76 23 105 l11 52 107 0 108 0 -22 -105 -23 -106 71 3 71 3 46 218
c26 120 50 234 53 253 l7 34 -70 0 -70 0 -11 -57 c-6 -32 -16 -75 -21 -95
l-10 -38 -104 0 c-78 0 -105 3 -105 13 0 6 9 49 19 95 l19 82 -69 0 c-47 0
-71 -4 -74 -12z"/>
<path d="M13709 5850 c-9 -5 -21 -22 -27 -37 -11 -26 -92 -394 -92 -414 0 -5
9 -18 20 -29 19 -19 33 -20 214 -20 l194 0 7 33 c4 17 9 40 11 50 5 16 -6 17
-140 17 l-146 0 0 24 c0 13 3 38 6 55 l7 31 143 0 c78 0 145 4 148 8 3 5 8 28
12 50 l7 42 -143 0 -143 0 7 42 c4 22 9 45 12 50 3 4 70 8 149 8 79 0 146 3
148 8 3 4 8 26 12 50 l7 42 -199 0 c-109 0 -205 -5 -214 -10z"/>
<path d="M14185 5848 c-4 -13 -105 -485 -105 -494 0 -2 32 -4 70 -4 39 0 70 2
70 5 0 8 100 479 105 493 3 9 -14 12 -66 12 -47 0 -71 -4 -74 -12z"/>
<path d="M14425 5769 c-127 -114 -135 -123 -135 -169 0 -31 13 -55 80 -143
l80 -107 81 0 81 0 -38 48 c-21 26 -56 70 -79 97 -63 76 -78 102 -68 119 5 9
60 61 123 117 63 56 122 107 130 115 12 12 2 14 -70 13 l-85 0 -100 -90z"/>
<path d="M16809 5850 c-9 -5 -21 -22 -27 -37 -11 -26 -92 -394 -92 -414 0 -5
9 -18 20 -29 19 -19 33 -20 214 -20 l194 0 7 33 c4 17 9 40 11 50 5 16 -6 17
-140 17 l-146 0 0 24 c0 13 3 38 6 55 l7 31 143 0 c78 0 145 4 148 8 3 5 8 28
12 50 l7 42 -143 0 -143 0 7 42 c4 22 9 45 12 50 3 4 70 8 149 8 79 0 146 3
148 8 3 4 8 26 12 50 l7 42 -199 0 c-109 0 -205 -5 -214 -10z"/>
<path d="M17309 5850 c-9 -5 -21 -22 -28 -37 -8 -22 -101 -440 -101 -458 0 -3
31 -5 69 -5 l70 0 11 58 c23 112 3 99 163 104 169 5 193 14 228 85 19 38 24
65 24 125 0 71 -2 80 -28 105 l-27 28 -183 3 c-106 1 -189 -2 -198 -8z m286
-106 c18 -18 13 -63 -11 -101 -13 -21 -22 -23 -109 -23 -70 0 -95 3 -95 13 1
26 22 102 32 114 16 20 162 18 183 -3z"/>
<path d="M17825 5838 c-2 -13 -11 -54 -20 -91 -37 -165 -16 -187 179 -187 69
0 126 -4 126 -8 0 -4 -9 -48 -20 -98 -11 -49 -20 -92 -20 -96 0 -5 31 -8 69
-8 l70 0 11 58 c7 31 31 146 54 255 l43 198 -71 -3 -71 -3 -20 -97 -19 -98
-93 0 c-112 0 -116 4 -96 99 7 36 16 74 19 84 5 15 -3 17 -65 17 -65 0 -71 -2
-76 -22z"/>
<path d="M18409 5850 c-9 -5 -21 -22 -27 -37 -11 -26 -92 -394 -92 -414 0 -5
9 -18 20 -29 19 -19 33 -20 214 -20 l194 0 7 33 c4 17 9 40 11 50 5 16 -6 17
-140 17 l-146 0 0 24 c0 13 3 38 6 55 l7 31 143 0 c78 0 145 4 148 8 3 5 8 28
12 50 l7 42 -143 0 -143 0 7 42 c4 22 9 45 12 50 3 4 70 8 149 8 79 0 146 3
148 8 3 4 8 26 12 50 l7 42 -199 0 c-109 0 -205 -5 -214 -10z"/>
<path d="M18995 5851 c-105 -26 -172 -135 -183 -298 -4 -59 -1 -79 17 -115 34
-72 62 -82 233 -86 162 -4 148 -10 163 66 l7 32 -94 0 c-173 0 -200 21 -178
140 14 77 43 133 79 151 14 7 76 15 138 17 122 4 114 0 128 70 l7 32 -144 -1
c-79 -1 -156 -4 -173 -8z"/>
<path d="M19365 5848 c-4 -13 -105 -485 -105 -494 0 -2 32 -4 70 -4 39 0 70 2
70 5 0 8 100 479 105 493 3 9 -14 12 -66 12 -47 0 -71 -4 -74 -12z"/>
<path d="M19605 5769 c-127 -114 -135 -123 -135 -169 0 -31 13 -55 80 -143
l80 -107 81 0 81 0 -38 48 c-21 26 -56 70 -79 97 -63 76 -78 102 -68 119 5 9
60 61 123 117 63 56 122 107 130 115 12 12 2 14 -70 13 l-85 0 -100 -90z"/>
<path d="M20489 5850 c-9 -5 -21 -22 -27 -37 -11 -26 -92 -394 -92 -414 0 -5
9 -18 20 -29 19 -19 33 -20 214 -20 l194 0 7 33 c4 17 9 40 11 50 5 16 -6 17
-140 17 l-146 0 0 24 c0 13 3 38 6 55 l7 31 143 0 c78 0 145 4 148 8 3 5 8 28
12 50 l7 42 -143 0 -143 0 7 42 c4 22 9 45 12 50 3 4 70 8 149 8 79 0 146 3
148 8 3 4 8 26 12 50 l7 42 -199 0 c-109 0 -205 -5 -214 -10z"/>
<path d="M9592 5110 c-101 -19 -141 -54 -179 -157 -17 -45 -27 -97 -30 -153
-6 -109 10 -144 81 -179 44 -22 63 -25 160 -25 205 1 269 47 311 226 33 141 9
234 -70 269 -54 24 -191 33 -273 19z m185 -115 c31 -22 36 -63 18 -140 -28
-121 -65 -155 -169 -155 -47 0 -61 4 -81 25 -28 27 -30 50 -14 127 15 72 44
124 77 142 36 20 141 21 169 1z"/>
<path d="M10774 5106 c-24 -11 -63 -65 -182 -255 -84 -133 -152 -244 -152
-246 0 -3 33 -5 74 -5 l74 0 34 58 34 57 104 0 105 0 9 -57 9 -58 69 0 c38 0
68 4 68 10 0 5 -21 112 -46 237 -32 158 -51 234 -64 247 -23 24 -96 31 -136
12z"/>
<path d="M12060 5109 c-39 -16 -63 -43 -183 -203 -61 -82 -113 -144 -114 -139
-2 5 12 78 32 162 19 84 35 159 35 167 0 11 -16 14 -68 14 l-68 0 -48 -228
c-53 -249 -52 -262 2 -283 30 -12 97 -3 128 16 11 7 78 88 148 179 70 91 129
166 130 166 2 0 -14 -75 -36 -167 -21 -91 -38 -172 -38 -180 0 -9 18 -13 68
-13 l68 0 47 219 c39 184 45 225 35 251 -16 46 -77 63 -138 39z"/>
<path d="M15302 5110 c-101 -19 -141 -54 -179 -157 -17 -45 -27 -97 -30 -153
-6 -109 10 -144 81 -179 44 -22 63 -25 160 -25 205 1 269 47 311 226 33 141 9
234 -70 269 -54 24 -191 33 -273 19z m185 -115 c31 -22 36 -63 18 -140 -28
-121 -65 -155 -169 -155 -47 0 -61 4 -81 25 -28 27 -30 50 -14 127 15 72 44
124 77 142 36 20 141 21 169 1z"/>
<path d="M8906 5102 c-3 -5 -8 -28 -12 -50 l-7 -42 92 0 c62 0 91 -4 91 -12 0
-6 -18 -96 -40 -199 -22 -104 -40 -191 -40 -194 0 -3 31 -5 69 -5 l69 0 10 48
c6 26 25 118 43 205 l33 157 96 0 96 0 10 50 11 50 -258 0 c-142 0 -260 -4
-263 -8z"/>
<path d="M10069 5100 c-9 -5 -21 -22 -27 -37 -11 -26 -92 -394 -92 -414 0 -5
9 -18 20 -29 18 -18 33 -20 198 -20 209 0 233 7 270 80 29 58 30 130 2 155
-26 24 -25 27 9 47 69 39 66 184 -4 216 -31 15 -352 16 -376 2z m284 -111 c7
-11 5 -25 -4 -45 -14 -29 -15 -29 -108 -32 l-94 -3 7 42 c4 23 9 46 12 51 3 5
44 7 91 6 65 -2 88 -7 96 -19z m-44 -188 c19 -12 6 -78 -19 -91 -10 -5 -55
-10 -99 -10 -90 0 -90 1 -75 79 l7 31 86 0 c47 0 92 -4 100 -9z"/>
<path d="M11169 5100 c-9 -5 -21 -22 -28 -37 -8 -22 -101 -440 -101 -458 0 -3
31 -5 69 -5 l70 0 11 58 c23 112 3 99 163 104 169 5 193 14 228 85 19 38 24
65 24 125 0 71 -2 80 -28 105 l-27 28 -183 3 c-106 1 -189 -2 -198 -8z m286
-106 c18 -18 13 -63 -11 -101 -13 -21 -22 -23 -109 -23 -70 0 -95 3 -95 13 1
26 22 102 32 114 16 20 162 18 183 -3z"/>
<path d="M12285 5098 c-6 -17 -95 -439 -95 -450 0 -4 9 -17 20 -28 19 -19 33
-20 331 -20 l312 0 -6 -50 -6 -50 68 0 68 0 11 64 c7 35 12 73 12 84 0 27 -26
52 -54 52 l-22 0 43 203 c24 111 43 203 43 205 0 1 -31 2 -69 2 l-70 0 -16
-72 c-8 -40 -28 -131 -43 -203 l-27 -130 -78 -3 c-72 -3 -78 -1 -73 15 3 10
22 95 41 188 20 94 38 178 41 188 5 15 -3 17 -65 17 -58 0 -71 -3 -75 -17 -3
-10 -21 -94 -41 -188 -19 -93 -38 -178 -41 -187 -4 -15 -17 -18 -75 -18 -67 0
-69 1 -69 25 0 22 64 340 75 373 3 9 -14 12 -66 12 -47 0 -71 -4 -74 -12z"/>
<path d="M13139 5100 c-9 -5 -21 -22 -27 -37 -11 -26 -92 -394 -92 -414 0 -5
9 -18 20 -29 19 -19 33 -20 214 -20 l194 0 7 33 c4 17 9 40 11 50 5 16 -6 17
-140 17 l-146 0 0 24 c0 13 3 38 6 55 l7 31 143 0 c78 0 145 4 148 8 3 5 8 28
12 50 l7 42 -143 0 -143 0 7 42 c4 22 9 45 12 50 3 4 70 8 149 8 79 0 146 3
148 8 3 4 8 26 12 50 l7 42 -199 0 c-109 0 -205 -5 -214 -10z"/>
<path d="M13725 5101 c-105 -26 -172 -135 -183 -298 -4 -59 -1 -79 17 -115 34
-72 62 -82 233 -86 162 -4 148 -10 163 66 l7 32 -94 0 c-173 0 -200 21 -178
140 14 77 43 133 79 151 14 7 76 15 138 17 122 4 114 0 128 70 l7 32 -144 -1
c-79 -1 -156 -4 -173 -8z"/>
<path d="M14066 5102 c-3 -5 -8 -28 -12 -50 l-7 -42 92 0 c62 0 91 -4 91 -12
0 -6 -18 -96 -40 -199 -22 -104 -40 -191 -40 -194 0 -3 31 -5 69 -5 l69 0 10
48 c6 26 25 118 43 205 l33 157 96 0 96 0 10 50 11 50 -258 0 c-142 0 -260 -4
-263 -8z"/>
<path d="M14639 5100 c-9 -5 -21 -22 -27 -37 -11 -26 -92 -394 -92 -414 0 -5
9 -18 20 -29 18 -18 33 -20 198 -20 209 0 233 7 270 80 29 58 30 130 2 155
-26 24 -25 27 9 47 69 39 66 184 -4 216 -31 15 -352 16 -376 2z m284 -111 c7
-11 5 -25 -4 -45 -14 -29 -15 -29 -108 -32 l-94 -3 7 42 c4 23 9 46 12 51 3 5
44 7 91 6 65 -2 88 -7 96 -19z m-44 -188 c19 -12 6 -78 -19 -91 -10 -5 -55
-10 -99 -10 -90 0 -90 1 -75 79 l7 31 86 0 c47 0 92 -4 100 -9z"/>
<path d="M9060 4220 c0 -5 -7 -10 -15 -10 -30 0 -94 -67 -113 -118 -19 -52
-51 -167 -62 -224 -15 -77 -41 -410 -80 -1013 -6 -93 -13 -177 -15 -185 -3 -8
-10 -87 -16 -175 -10 -157 -18 -273 -39 -565 -6 -80 -15 -203 -20 -275 -5 -71
-14 -206 -20 -300 -6 -93 -13 -178 -16 -187 -5 -18 -22 -255 -31 -445 l-5
-123 155 0 c180 0 163 -13 172 130 3 52 12 176 20 275 8 99 19 254 25 345 6
91 15 226 20 300 5 74 14 209 20 300 6 91 17 251 25 355 8 105 19 256 25 338
5 81 15 213 20 295 6 81 12 168 14 195 3 46 11 66 21 55 6 -6 22 -242 35 -538
6 -124 15 -310 20 -415 5 -104 14 -289 20 -410 6 -121 17 -330 25 -465 9 -135
15 -276 15 -315 0 -69 22 -271 38 -350 13 -61 46 -115 71 -115 6 0 11 -4 11
-10 0 -6 27 -10 60 -10 33 0 60 4 60 10 0 6 5 10 10 10 25 0 65 58 92 134 26
72 37 108 68 236 9 39 64 319 87 445 8 44 18 96 23 115 5 19 15 73 24 120 8
47 28 150 45 230 16 80 36 183 45 230 8 47 27 141 42 210 24 119 32 160 53
283 5 28 13 70 19 92 6 22 25 117 43 210 30 167 36 195 61 285 l13 45 3 -40
c5 -45 -11 -284 -33 -505 -8 -80 -19 -217 -25 -305 -6 -88 -15 -212 -20 -275
-5 -63 -14 -185 -20 -270 -6 -85 -17 -225 -25 -310 -8 -85 -19 -225 -25 -310
-6 -85 -15 -207 -20 -270 -5 -63 -12 -153 -15 -200 -3 -47 -8 -95 -12 -107
l-5 -23 164 0 165 0 11 148 c7 81 14 179 16 217 3 39 9 117 15 175 5 58 15
177 21 265 6 88 15 216 20 285 5 69 14 195 20 280 6 85 17 234 25 330 8 96 19
245 25 330 6 85 15 211 20 280 5 69 14 197 20 285 6 88 18 234 26 325 20 234
18 390 -5 489 -23 95 -59 172 -83 179 -10 2 -18 8 -18 13 0 5 -7 9 -15 9 -8 0
-15 5 -15 10 0 6 -32 10 -75 10 -43 0 -75 -4 -75 -10 0 -5 -7 -10 -15 -10 -20
0 -44 -19 -84 -68 -17 -21 -36 -62 -91 -202 -22 -55 -50 -164 -50 -193 0 -11
-4 -34 -9 -51 -6 -17 -17 -67 -26 -111 -57 -290 -68 -346 -76 -395 -18 -103
-26 -145 -53 -275 -15 -71 -32 -152 -36 -180 -20 -114 -30 -162 -39 -195 -5
-19 -19 -91 -31 -160 -12 -69 -26 -139 -31 -156 -5 -17 -9 -41 -9 -53 0 -13
-6 -46 -14 -74 -7 -29 -23 -108 -35 -177 -13 -69 -27 -139 -32 -156 -5 -17 -9
-40 -9 -52 0 -24 -46 -211 -54 -219 -3 -3 -7 5 -10 18 -7 40 -26 349 -26 434
0 44 -4 127 -10 185 -5 58 -15 206 -20 330 -26 541 -41 853 -60 1205 -13 258
-56 448 -114 510 -19 19 -38 35 -45 35 -6 0 -11 5 -11 10 0 6 -30 10 -70 10
-40 0 -70 -4 -70 -10z"/>
<path d="M11210 4220 c0 -5 -7 -10 -15 -10 -8 0 -15 -3 -15 -8 0 -4 -10 -12
-22 -17 -13 -6 -33 -28 -45 -50 -30 -54 -80 -209 -105 -325 -10 -52 -23 -113
-28 -135 -5 -22 -14 -62 -19 -90 -6 -27 -17 -81 -26 -120 -9 -38 -20 -88 -25
-110 -19 -97 -52 -251 -56 -256 -4 -7 -38 -167 -55 -259 -4 -25 -13 -65 -18
-90 -16 -68 -81 -369 -91 -420 -5 -25 -16 -74 -25 -110 -9 -36 -20 -85 -25
-110 -5 -25 -25 -119 -44 -210 -20 -91 -54 -248 -76 -350 -22 -102 -51 -237
-66 -300 -14 -63 -29 -135 -34 -160 -4 -25 -16 -76 -24 -115 -29 -125 -37
-159 -46 -205 -5 -25 -13 -65 -19 -90 -20 -86 -33 -80 164 -80 174 0 175 0
180 23 4 13 26 120 51 238 43 205 54 260 73 359 5 25 16 76 25 115 9 38 16 73
16 77 0 5 116 8 258 8 l259 0 7 -102 c12 -166 25 -393 31 -538 9 -202 -12
-180 175 -180 146 0 160 2 160 18 0 9 -4 71 -10 137 -5 66 -14 190 -20 275 -6
85 -15 219 -20 298 -6 78 -14 206 -20 285 -5 78 -15 212 -20 297 -6 85 -18
241 -26 345 -18 243 -31 418 -44 625 -6 91 -15 221 -20 290 -5 69 -16 222 -25
340 -30 419 -41 511 -71 613 -7 22 -68 87 -83 87 -6 0 -11 5 -11 10 0 6 -32
10 -75 10 -43 0 -75 -4 -75 -10z m60 -1160 c6 -96 15 -242 20 -325 23 -365 30
-464 36 -532 l7 -73 -177 0 c-134 0 -176 3 -176 13 0 10 33 173 90 442 5 22
25 119 45 215 20 96 41 193 46 215 5 22 14 65 20 95 27 137 44 210 55 235 11
25 18 -36 34 -285z"/>
<path d="M14110 4220 c0 -5 -5 -10 -10 -10 -19 0 -67 -51 -86 -90 -10 -22 -22
-40 -26 -40 -3 0 -10 -15 -13 -32 -4 -18 -10 -35 -14 -38 -7 -5 -41 -105 -60
-175 -28 -105 -54 -205 -67 -260 -8 -33 -21 -82 -29 -110 -15 -50 -109 -418
-125 -485 -8 -35 -31 -129 -51 -205 -6 -22 -15 -53 -20 -70 -6 -16 -17 -57
-25 -90 -22 -90 -34 -137 -45 -171 -5 -17 -9 -39 -9 -50 0 -11 -4 -24 -10 -30
-5 -5 -15 -32 -20 -59 -6 -28 -15 -66 -20 -85 -11 -42 -25 -100 -39 -155 -25
-104 -73 -283 -81 -307 -29 -82 -33 -89 -41 -76 -10 15 -5 120 16 348 8 85 19
216 24 290 6 74 15 198 21 275 23 310 31 405 41 510 6 61 15 166 20 235 5 69
13 186 19 260 14 179 27 351 36 483 l7 108 -164 -3 -164 -3 -6 -115 c-14 -245
-28 -436 -33 -450 -3 -8 -10 -91 -16 -185 -21 -318 -30 -450 -40 -580 -5 -71
-14 -206 -20 -300 -6 -93 -12 -177 -15 -185 -3 -8 -9 -85 -15 -170 -6 -85 -15
-216 -20 -290 -5 -74 -14 -200 -20 -280 -5 -80 -14 -210 -20 -290 -12 -174
-12 -408 -1 -506 9 -76 38 -182 56 -200 5 -6 17 -21 25 -33 8 -11 20 -21 27
-21 7 0 13 -4 13 -10 0 -6 27 -10 60 -10 33 0 60 4 60 10 0 6 9 10 21 10 11 0
40 21 67 50 66 69 72 77 72 94 0 8 3 16 8 18 4 2 18 35 31 73 23 67 33 100 51
175 5 19 25 96 45 170 20 74 54 200 75 280 21 80 55 206 75 280 20 74 40 151
45 170 5 19 20 78 35 130 15 52 31 113 36 135 21 87 28 112 44 165 9 30 21 72
26 93 42 173 44 181 74 287 35 123 45 167 52 213 3 20 9 40 14 43 5 3 9 16 9
29 0 24 10 52 44 125 16 34 16 32 11 -80 -3 -63 -10 -162 -15 -220 -5 -58 -14
-177 -20 -265 -7 -88 -16 -205 -21 -260 -6 -55 -14 -156 -20 -225 -5 -69 -13
-183 -19 -255 -18 -239 -30 -399 -40 -525 -5 -69 -14 -177 -19 -240 -26 -281
-31 -339 -31 -388 l0 -52 159 0 c185 0 167 -13 176 130 3 52 10 154 15 225 10
139 23 317 40 560 6 83 17 231 25 330 14 171 22 277 45 608 6 78 15 201 20
272 5 72 14 202 20 290 6 88 18 232 26 320 19 212 18 498 -1 590 -8 38 -15 79
-15 91 0 67 -65 194 -100 194 -5 0 -10 5 -10 10 0 6 -32 10 -75 10 -43 0 -75
-4 -75 -10z"/>
<path d="M18820 4220 c0 -5 -7 -10 -15 -10 -8 0 -15 -4 -15 -10 0 -5 -6 -10
-14 -10 -19 0 -65 -70 -83 -127 -36 -116 -65 -225 -84 -318 -12 -55 -25 -118
-30 -140 -5 -22 -14 -62 -19 -90 -5 -27 -21 -102 -36 -165 -14 -63 -28 -131
-31 -150 -2 -19 -8 -44 -12 -55 -5 -11 -14 -47 -21 -80 -6 -33 -16 -78 -21
-100 -4 -22 -21 -103 -37 -180 -17 -77 -37 -170 -46 -206 -9 -37 -29 -131 -45
-210 -27 -130 -38 -179 -72 -329 -6 -25 -14 -65 -19 -90 -4 -25 -20 -99 -35
-165 -15 -66 -31 -138 -35 -160 -16 -75 -80 -369 -111 -510 -17 -77 -35 -160
-39 -185 -5 -25 -21 -97 -35 -160 -15 -63 -29 -127 -32 -142 l-5 -28 180 0
180 0 5 33 c4 17 11 55 16 82 6 28 15 73 20 100 6 28 15 73 20 100 6 28 32
152 57 278 l48 227 257 0 c225 0 258 -2 263 -16 3 -9 6 -50 6 -92 0 -42 4
-137 10 -211 5 -75 14 -212 21 -305 6 -93 13 -176 16 -183 4 -10 41 -13 159
-13 l154 0 0 68 c0 64 -7 162 -31 447 -6 72 -15 191 -20 265 -5 74 -13 201
-19 283 -5 81 -14 211 -20 290 -5 78 -14 210 -19 292 -5 83 -14 197 -20 255
-6 58 -15 184 -21 280 -6 96 -15 234 -20 305 -5 72 -14 200 -20 285 -33 479
-46 608 -72 700 -14 52 -40 110 -49 110 -4 0 -19 11 -33 25 -22 22 -33 25
-101 25 -43 0 -75 -4 -75 -10z m50 -935 c0 -27 4 -113 10 -190 5 -77 14 -214
20 -305 6 -91 17 -248 25 -350 9 -102 15 -213 15 -247 l0 -63 -175 0 c-96 0
-175 3 -175 8 1 8 39 192 110 527 29 132 55 258 60 280 76 372 89 423 102 403
4 -7 8 -35 8 -63z"/>
<path d="M20260 4220 c0 -5 -5 -10 -10 -10 -6 0 -16 -5 -23 -10 -7 -6 -21 -18
-33 -28 -33 -27 -78 -120 -94 -192 -5 -19 -17 -71 -28 -115 -12 -44 -30 -123
-41 -175 -11 -52 -22 -108 -26 -125 -3 -16 -10 -50 -15 -75 -8 -40 -45 -205
-71 -315 -5 -22 -13 -64 -19 -94 -5 -30 -14 -68 -19 -85 -6 -17 -27 -110 -46
-206 -38 -184 -44 -212 -71 -325 -8 -38 -20 -90 -24 -115 -17 -91 -50 -242
-55 -250 -4 -7 -48 -210 -75 -350 -5 -25 -21 -96 -35 -157 -45 -200 -72 -324
-113 -518 -37 -171 -48 -222 -83 -375 -6 -25 -13 -57 -16 -73 l-5 -27 178 0
179 0 37 188 c21 103 60 297 88 432 28 135 68 333 90 440 22 107 62 305 90
440 99 482 161 788 196 965 19 99 40 193 46 209 l12 30 8 -30 c5 -16 13 -108
18 -204 18 -347 32 -600 55 -950 8 -124 19 -310 25 -415 6 -104 15 -262 20
-350 5 -88 14 -245 20 -350 5 -104 13 -238 16 -297 l6 -108 164 0 164 0 0 52
c0 29 -4 100 -10 158 -11 118 -34 425 -50 660 -6 85 -15 211 -20 280 -5 69
-14 202 -20 295 -6 94 -16 217 -21 275 -6 58 -15 169 -20 248 -11 169 -25 373
-39 572 -5 80 -15 219 -20 310 -6 91 -15 192 -20 225 -6 33 -10 96 -10 140 0
77 -28 254 -48 305 -13 31 -65 90 -80 90 -7 0 -12 5 -12 10 0 6 -30 10 -70 10
-40 0 -70 -4 -70 -10z"/>
<path d="M12170 4183 c-8 -4 -23 -16 -32 -27 -10 -12 -22 -26 -28 -33 -5 -7
-10 -19 -10 -27 0 -8 -4 -16 -10 -18 -14 -4 -57 -214 -69 -333 -15 -146 -32
-352 -41 -495 -9 -128 -22 -320 -39 -560 -6 -74 -13 -175 -16 -225 -3 -49 -12
-164 -20 -255 -8 -91 -19 -237 -25 -325 -6 -88 -15 -216 -20 -285 -5 -69 -14
-197 -20 -285 -6 -88 -18 -234 -25 -325 -8 -91 -17 -216 -21 -277 l-6 -113
160 0 c183 0 172 -6 172 93 0 34 4 109 9 167 6 58 15 175 21 260 23 334 31
452 45 620 8 96 19 245 25 330 6 85 15 209 20 275 5 66 14 199 20 295 6 96 15
218 20 270 6 52 15 160 21 240 12 181 31 283 55 307 10 10 90 13 347 13 l334
0 12 148 c6 81 16 206 21 277 5 72 12 167 15 213 l6 82 -453 -1 c-249 0 -460
-3 -468 -6z"/>
<path d="M14988 4183 c-16 -2 -28 -9 -28 -14 0 -5 -8 -9 -18 -9 -10 0 -28 -9
-40 -20 -12 -11 -24 -20 -28 -20 -11 0 -65 -62 -81 -94 -9 -16 -21 -36 -27
-43 -25 -29 -33 -40 -55 -88 -46 -98 -94 -250 -121 -385 -10 -52 -21 -102 -24
-110 -15 -41 -65 -444 -86 -690 -34 -418 -40 -539 -40 -835 0 -256 4 -354 20
-490 11 -93 23 -183 25 -200 3 -16 11 -57 17 -90 29 -160 104 -324 184 -402
30 -29 59 -53 64 -53 6 0 10 -4 10 -10 0 -5 14 -10 30 -10 17 0 30 -4 30 -10
0 -6 103 -10 290 -10 l290 0 0 63 c0 34 5 100 10 147 6 47 15 150 20 230 6 80
13 178 17 218 l6 72 -237 0 c-151 0 -236 4 -236 10 0 6 -11 10 -25 10 -14 0
-25 5 -25 10 0 6 -5 10 -11 10 -24 0 -87 81 -102 132 -38 130 -41 161 -41 439
1 288 15 508 55 859 26 228 99 489 153 546 6 6 18 21 26 33 8 11 20 21 27 21
7 0 13 5 13 10 0 6 7 10 15 10 8 0 15 7 15 15 0 8 9 15 20 15 11 0 20 5 20 10
0 6 85 10 235 10 181 0 235 3 236 13 5 104 20 323 28 397 5 52 12 143 16 203
l6 107 -313 -1 c-172 -1 -325 -4 -340 -6z"/>
<path d="M15720 4113 c0 -43 -5 -112 -10 -153 -6 -41 -15 -142 -20 -225 -6
-82 -13 -176 -16 -207 l-7 -58 232 0 232 0 -6 -87 c-9 -146 -25 -358 -40 -548
-8 -99 -19 -247 -25 -330 -14 -201 -28 -402 -40 -560 -5 -71 -14 -202 -20
-290 -6 -88 -17 -234 -25 -325 -8 -91 -19 -239 -25 -330 -6 -91 -15 -212 -20
-270 -6 -58 -10 -111 -10 -117 0 -10 39 -13 164 -13 l164 0 5 92 c15 258 27
420 37 483 5 39 10 99 10 135 0 35 4 112 10 170 5 58 14 175 20 260 19 289 31
445 45 615 13 160 20 250 45 628 6 83 15 199 20 257 6 58 10 133 10 168 l0 62
235 0 235 0 0 58 c0 31 5 98 10 147 6 50 15 153 20 230 5 77 12 173 16 213 l7
72 -627 0 -626 0 0 -77z"/>
<path d="M17180 4183 c-8 -3 -23 -16 -32 -27 -10 -12 -22 -27 -28 -34 -45 -52
-92 -308 -111 -594 -5 -76 -13 -200 -19 -275 -12 -176 -26 -376 -40 -578 -6
-88 -15 -189 -20 -225 -5 -36 -10 -94 -10 -130 0 -35 -4 -112 -10 -170 -5 -58
-14 -175 -20 -260 -18 -276 -30 -441 -45 -620 -17 -210 -32 -416 -41 -562 l-6
-108 159 0 159 0 17 193 c9 105 21 260 27 342 6 83 15 204 20 270 5 66 12 168
16 228 l6 107 284 0 c183 0 284 4 284 10 0 6 16 10 35 10 19 0 35 5 35 10 0 6
9 10 20 10 11 0 20 5 20 10 0 6 5 10 10 10 39 0 139 181 164 295 8 39 22 99
30 135 31 140 56 386 76 740 14 249 12 402 -5 605 -22 259 -39 343 -95 469
-24 53 -24 54 -71 106 l-32 35 -381 2 c-209 1 -388 -1 -396 -4z m570 -723 c0
-5 7 -10 15 -10 8 0 15 -7 15 -15 0 -8 4 -15 8 -15 11 0 30 -73 42 -159 16
-118 -15 -525 -47 -621 -17 -52 -51 -119 -69 -137 -7 -7 -22 -13 -33 -13 -12
0 -21 -4 -21 -10 0 -6 -74 -10 -201 -10 l-202 0 7 88 c13 161 27 356 36 502
13 210 38 367 64 397 14 16 386 18 386 3z"/>
<path d="M21086 4088 c-4 -57 -11 -159 -16 -228 -16 -214 -29 -399 -40 -565
-6 -88 -17 -236 -25 -330 -14 -164 -23 -285 -45 -615 -14 -207 -26 -366 -45
-595 -8 -104 -17 -221 -19 -260 -3 -38 -10 -151 -16 -250 -19 -280 1 -550 40
-563 5 -2 10 -10 10 -19 0 -17 24 -43 39 -43 6 0 11 -4 11 -10 0 -6 138 -10
395 -10 257 0 395 4 395 10 0 6 11 10 25 10 14 0 25 5 25 10 0 6 7 10 16 10
14 0 43 27 83 76 108 133 192 718 191 1339 -1 372 -48 645 -126 723 -8 7 -14
18 -14 23 0 5 -7 9 -15 9 -8 0 -15 7 -15 15 0 8 -7 15 -15 15 -8 0 -15 5 -15
10 0 6 -103 10 -290 10 l-290 0 0 70 c0 38 4 113 9 167 5 54 14 175 20 268 18
282 36 516 58 763 l6 62 -166 0 -165 0 -6 -102z m574 -1958 c0 -5 9 -10 21
-10 57 0 99 -113 99 -267 0 -89 -30 -335 -49 -399 -18 -63 -48 -104 -75 -104
-9 0 -16 -4 -16 -10 0 -6 -71 -10 -194 -10 l-194 0 -13 33 c-18 40 -18 134 -1
357 8 96 18 229 22 295 5 66 9 121 9 123 3 8 391 0 391 -8z"/>
<path d="M4894 1600 c-154 -22 -296 -185 -339 -388 -71 -342 119 -612 431
-612 80 0 121 12 243 71 46 23 101 44 122 46 33 5 42 1 66 -24 15 -17 37 -45
48 -64 37 -63 187 -143 335 -180 116 -29 296 -26 398 6 78 25 180 83 215 123
l19 21 -45 -14 c-25 -7 -107 -17 -184 -20 -260 -13 -356 27 -532 220 l-74 82
-111 -58 c-330 -170 -515 -141 -634 101 -37 75 -37 75 -37 205 0 129 0 130 37
205 43 88 120 170 200 212 29 15 59 28 66 28 26 0 10 19 -25 31 -46 15 -129
19 -199 9z"/>
<path d="M7595 1198 c-43 -24 -46 -57 -10 -119 14 -24 25 -52 25 -61 0 -25 25
-35 113 -47 158 -22 287 -7 401 47 62 30 166 106 166 122 0 5 -20 1 -44 -10
-104 -44 -290 -53 -418 -21 -81 21 -166 59 -187 85 -16 19 -20 19 -46 4z"/>
<path d="M6703 854 c-16 -7 -123 -140 -123 -153 0 -6 -4 -10 -8 -8 -5 1 -26
-13 -47 -32 l-39 -34 25 -20 c37 -30 156 -84 229 -104 88 -23 263 -22 349 1
70 19 177 70 230 110 40 30 34 32 -29 10 -59 -21 -215 -20 -295 1 -33 9 -82
28 -110 44 -41 23 -56 39 -82 90 -46 92 -65 109 -100 95z"/>
</g>
</svg>
